<svg xmlns="http://www.w3.org/2000/svg" width="19" height="15" viewBox="0 0 19 15" fill="none">
  <path d="M18.4065 4.37675C18.4068 4.03414 18.3307 3.69625 18.1842 3.3903C18.0377 3.08435 17.825 2.8189 17.5632 2.61533C17.3014 2.41176 16.9978 2.27577 16.6769 2.21832C16.3561 2.16086 16.0268 2.18355 15.7158 2.28454C15.4048 2.38554 15.1207 2.56202 14.8863 2.79977C14.652 3.03753 14.4739 3.3299 14.3666 3.65334C14.2592 3.97678 14.2256 4.32224 14.2683 4.66189C14.311 5.00154 14.4289 5.32588 14.6125 5.60878L12.6242 8.18691L10.8362 3.86113C11.1623 3.57223 11.3961 3.18479 11.506 2.7513C11.6158 2.31782 11.5964 1.85927 11.4503 1.4378C11.3043 1.01633 11.0386 0.65233 10.6894 0.395138C10.3402 0.137945 9.92428 0 9.49807 0C9.07187 0 8.65596 0.137945 8.30674 0.395138C7.95752 0.65233 7.69187 1.01633 7.5458 1.4378C7.39973 1.85927 7.38031 2.31782 7.49016 2.7513C7.60001 3.18479 7.83382 3.57223 8.15991 3.86113L6.37643 8.18456L4.38811 5.60644C4.64353 5.21249 4.76963 4.74146 4.74721 4.2651C4.7248 3.78873 4.55509 3.33313 4.26393 2.96768C3.97278 2.60224 3.57613 2.34697 3.13441 2.24076C2.69269 2.13454 2.23009 2.18321 1.81707 2.37934C1.40405 2.57547 1.06324 2.90832 0.846555 3.32719C0.629867 3.74607 0.549171 4.22801 0.616758 4.69962C0.684344 5.17124 0.896509 5.60668 1.22094 5.93963C1.54537 6.27257 1.96429 6.48478 2.41389 6.54394L3.48858 13.3322C3.53478 13.6241 3.67783 13.8892 3.89228 14.0805C4.10673 14.2717 4.37868 14.3767 4.65975 14.3768H14.3408C14.6219 14.3767 14.8939 14.2717 15.1083 14.0805C15.3228 13.8892 15.4658 13.6241 15.512 13.3322L16.586 6.54706C17.0886 6.48099 17.5509 6.22398 17.8862 5.82433C18.2214 5.42468 18.4065 4.90991 18.4065 4.37675ZM9.5003 1.25175C9.67645 1.25175 9.84864 1.30673 9.9951 1.40975C10.1416 1.51276 10.2557 1.65918 10.3231 1.83048C10.3905 2.00179 10.4082 2.19029 10.3738 2.37215C10.3394 2.554 10.2546 2.72105 10.1301 2.85216C10.0055 2.98327 9.84682 3.07256 9.67405 3.10874C9.50129 3.14491 9.32221 3.12634 9.15947 3.05539C8.99673 2.98443 8.85763 2.86427 8.75977 2.7101C8.66191 2.55593 8.60967 2.37467 8.60967 2.18925C8.60967 1.94061 8.70351 1.70215 8.87053 1.52634C9.03756 1.35052 9.26409 1.25175 9.5003 1.25175ZM1.78155 4.37675C1.78155 4.19133 1.83378 4.01007 1.93165 3.8559C2.02951 3.70173 2.16861 3.58157 2.33135 3.51061C2.49409 3.43966 2.67316 3.42109 2.84593 3.45726C3.01869 3.49344 3.17739 3.58273 3.30194 3.71384C3.4265 3.84495 3.51132 4.012 3.54569 4.19385C3.58005 4.37571 3.56241 4.56421 3.495 4.73552C3.4276 4.90682 3.31344 5.05324 3.16698 5.15625C3.02052 5.25927 2.84832 5.31425 2.67217 5.31425C2.43597 5.31425 2.20943 5.21548 2.04241 5.03966C1.87538 4.86385 1.78155 4.62539 1.78155 4.37675ZM16.3284 5.31425C16.1523 5.31425 15.9801 5.25927 15.8336 5.15625C15.6872 5.05324 15.573 4.90682 15.5056 4.73552C15.4382 4.56421 15.4205 4.37571 15.4549 4.19385C15.4893 4.012 15.5741 3.84495 15.6987 3.71384C15.8232 3.58273 15.9819 3.49344 16.1547 3.45726C16.3274 3.42109 16.5065 3.43966 16.6693 3.51061C16.832 3.58157 16.9711 3.70173 17.069 3.8559C17.1668 4.01007 17.219 4.19133 17.219 4.37675C17.219 4.62539 17.1252 4.86385 16.9582 5.03966C16.7912 5.21548 16.5646 5.31425 16.3284 5.31425Z" fill="#FFDD63"/>
</svg>