<svg xmlns="http://www.w3.org/2000/svg" width="58" height="58" viewBox="0 0 58 58" fill="none">
  <path d="M5.75166 4.18091L2.6825 7.25008L12.0833 16.6509V50.7501C12.0833 52.032 12.5926 53.2613 13.499 54.1678C14.4054 55.0742 15.6348 55.5834 16.9167 55.5834H41.0833C42.3652 55.5834 43.5946 55.0742 44.501 54.1678C45.4074 53.2613 45.9167 52.032 45.9167 50.7501V50.4842L50.3633 54.9309L53.4325 51.8617M41.0833 45.9167H16.9167V21.4842L41.0833 45.6509V45.9167ZM41.0833 12.0834V33.3501L45.9167 38.1834V7.25008C45.9167 5.9682 45.4074 4.73882 44.501 3.8324C43.5946 2.92597 42.3652 2.41675 41.0833 2.41675H16.9167C15.1767 2.41675 13.5333 3.31091 12.6633 4.83341L19.9133 12.0834H41.0833Z" fill="#616161"/>
</svg>