<svg xmlns="http://www.w3.org/2000/svg" width="53" height="52" viewBox="0 0 53 52" fill="none">
  <g clip-path="url(#clip0_40_11818)">
    <path d="M25.2882 2.47607C30.5308 2.47533 35.5946 4.22502 39.5345 7.39859C43.4744 10.5722 46.0211 14.9527 46.6994 19.7227L52.7714 28.486C53.1708 29.0629 53.0898 29.9222 52.1642 30.2886L46.8775 32.3637V39.6189C46.8775 40.9324 46.3088 42.192 45.2966 43.1208C44.2845 44.0495 42.9116 44.5713 41.4802 44.5713H36.0855L36.0828 51.9999H11.7949V42.8528C11.7949 39.9309 10.6182 37.165 8.43502 34.669C5.89208 31.7557 4.29791 28.2424 3.83621 24.534C3.3745 20.8255 4.06405 17.0729 5.82539 13.7084C7.58673 10.3438 10.3482 7.50437 13.7916 5.51712C17.235 3.52987 21.2203 2.4757 25.2882 2.47607ZM23.8579 16.7464C22.9674 15.9568 21.7745 15.5198 20.5362 15.5295C19.298 15.5391 18.1133 15.9946 17.2376 16.7979C16.3618 17.6012 15.8648 18.688 15.8538 19.8241C15.8428 20.9603 16.3186 22.055 17.1787 22.8725L25.2882 30.3159L33.3977 22.8725C33.8486 22.4726 34.2083 21.9944 34.4557 21.4657C34.7031 20.9369 34.8333 20.3683 34.8386 19.7929C34.8439 19.2176 34.7243 18.647 34.4867 18.1145C34.2491 17.582 33.8983 17.0982 33.4548 16.6914C33.0113 16.2846 32.484 15.963 31.9035 15.7452C31.3231 15.5274 30.7012 15.4179 30.0741 15.423C29.447 15.4281 28.8273 15.5478 28.2512 15.775C27.6751 16.0022 27.154 16.3324 26.7185 16.7464L25.2882 18.0587L23.8579 16.7464Z" fill="#616161"/>
  </g>
  <defs>
    <clipPath id="clip0_40_11818">
      <rect width="53" height="52" fill="white"/>
    </clipPath>
  </defs>
</svg>