<svg xmlns="http://www.w3.org/2000/svg" width="50" height="50" viewBox="0 0 50 50" fill="none">
  <path fill-rule="evenodd" clip-rule="evenodd" d="M36.473 9.06233C31.8529 5.74056 25.8368 4.4461 19.9172 6.03227C9.93376 8.7073 3.81683 18.6149 5.69557 28.6057C5.96892 30.0595 5.01202 31.4596 3.55819 31.733C2.10438 32.0064 0.704203 31.0495 0.430821 29.5957C-1.96156 16.8733 5.82103 4.26335 18.5307 0.857796C26.3732 -1.2436 34.3409 0.629391 40.2997 5.23543L42.4865 3.04898C43.6111 1.92407 45.5346 2.72078 45.5346 4.31164V12.5003C45.5346 13.4865 44.7353 14.286 43.7489 14.286H35.5603C33.9694 14.286 33.1727 12.3626 34.2976 11.2377L36.473 9.06233ZM46.4421 18.2669C47.8956 17.9935 49.2959 18.9504 49.5692 20.4042C51.9616 33.1266 44.1793 45.7366 31.4694 49.1423C23.6266 51.2436 15.6587 49.3705 9.69969 44.7642L7.51275 46.9509C6.38781 48.0759 4.46439 47.2791 4.46439 45.6884V37.4997C4.46439 36.5133 5.26387 35.714 6.25006 35.714H14.4388C16.0296 35.714 16.8263 37.6372 15.7014 38.7622L13.5265 40.9371C18.1467 44.2592 24.1631 45.5538 30.0829 43.9678C40.0665 41.2925 46.1832 31.385 44.3046 21.3942C44.0311 19.9404 44.9882 18.5403 46.4421 18.2669Z" fill="#616161"/>
</svg>