<svg xmlns="http://www.w3.org/2000/svg" width="55" height="54" viewBox="0 0 55 54" fill="none">
  <path d="M26.4571 36.817C24.8489 36.8184 23.2765 36.3361 21.9395 35.4311C20.6025 34.5262 19.5611 33.2394 18.9474 31.7341C18.3338 30.2289 18.1756 28.5729 18.4929 26.9764C18.8102 25.3799 19.5887 23.9149 20.7296 22.7672C20.9448 22.5513 21.1998 22.3805 21.4802 22.2644C21.7606 22.1484 22.0608 22.0894 22.3637 22.0908C22.6666 22.0923 22.9663 22.1541 23.2456 22.2728C23.5249 22.3915 23.7783 22.5648 23.9915 22.7827C24.2047 23.0006 24.3734 23.2589 24.488 23.5428C24.6026 23.8267 24.6608 24.1307 24.6594 24.4375C24.658 24.7442 24.5969 25.0476 24.4797 25.3304C24.3625 25.6133 24.1914 25.8699 23.9762 26.0858C23.6458 26.4129 23.3834 26.8038 23.2046 27.2352C23.0257 27.6667 22.934 28.1301 22.9348 28.598C22.8941 29.3346 23.082 30.0657 23.4721 30.6888C23.8622 31.3119 24.435 31.7958 25.1103 32.0728C25.7856 32.3497 26.5296 32.4058 27.2379 32.2332C27.9463 32.0606 28.5836 31.6679 29.0605 31.1102C29.4965 30.6727 30.0854 30.4272 30.6991 30.4272C31.3129 30.4272 31.9018 30.6727 32.3378 31.1102C32.7626 31.5555 33 32.1504 33 32.7695C33 33.3886 32.7626 33.9836 32.3378 34.4288C31.5637 35.203 30.6449 35.813 29.6351 36.223C28.6253 36.6331 27.5449 36.835 26.4571 36.817Z" fill="#616161"/>
  <path d="M51.0155 29.1477C51.0155 35.6576 48.4402 41.9008 43.8562 46.504C39.2722 51.1072 33.055 53.6932 26.5723 53.6932C20.0896 53.6932 13.8723 51.1072 9.28836 46.504C4.70437 41.9008 2.12912 35.6576 2.12912 29.1477C2.12912 22.6379 4.70437 16.3947 9.28836 11.7915C13.8723 7.18833 20.0896 4.60229 26.5723 4.60229C27.0466 4.60229 27.5016 4.79152 27.837 5.12833C28.1724 5.46515 28.3608 5.92197 28.3608 6.3983V15.4981C28.3546 15.9725 28.1642 16.4257 27.8301 16.7612C27.4961 17.0967 27.0447 17.2879 26.5723 17.2941C24.2368 17.2779 21.951 17.9707 20.0144 19.2817C18.0668 20.5778 16.5481 22.4272 15.6519 24.5939C14.7557 26.7607 14.5227 29.1464 14.9827 31.4466C15.7307 34.1756 17.4173 36.5501 19.7431 38.149C22.069 39.7479 24.8837 40.4677 27.6878 40.1807C30.4919 39.8936 33.104 38.6183 35.0608 36.5811C37.0175 34.5438 38.1922 31.8763 38.3766 29.052C38.3733 28.8152 38.4174 28.5802 38.5062 28.3609C38.5949 28.1415 38.7265 27.9422 38.8933 27.7748C39.06 27.6074 39.2584 27.4752 39.4769 27.3861C39.6953 27.297 39.9293 27.2527 40.1651 27.256H49.2269C49.4701 27.2556 49.7107 27.305 49.9341 27.4012C50.1576 27.4974 50.3592 27.6383 50.5266 27.8154C50.694 27.9924 50.8236 28.2019 50.9077 28.431C50.9918 28.6601 51.0284 28.904 51.0155 29.1477Z" fill="#616161"/>
  <path d="M55 12.0842C54.921 12.675 54.68 13.2322 54.304 13.6937L47.7374 20.2835C46.8036 21.2244 45.6483 21.9138 44.3785 22.2878C43.6336 22.5173 42.8579 22.63 42.0787 22.6218C41.5452 22.6693 41.0085 22.6693 40.4749 22.6218L36.4502 21.8323L29.5508 28.7865C29.1169 29.2005 28.5455 29.4385 27.947 29.4545C27.3453 29.454 26.7684 29.2137 26.3432 28.7865C26.1291 28.5771 25.9589 28.3268 25.8427 28.0504C25.7265 27.774 25.6667 27.477 25.6667 27.177C25.6667 26.877 25.7265 26.58 25.8427 26.3036C25.9589 26.0271 26.1291 25.7768 26.3432 25.5675L33.2729 18.5829L32.4558 14.5744C32.2117 13.2823 32.2738 11.9508 32.6374 10.6873C33.0101 9.41303 33.697 8.25366 34.6346 7.31649L41.1406 0.787438C41.5877 0.37933 42.1463 0.114911 42.7444 0.0282454C43.3042 -0.0531426 43.8753 0.0423807 44.3785 0.301554C44.8779 0.556429 45.2969 0.945405 45.5889 1.42516C45.8844 1.962 46.011 2.57605 45.9521 3.18649L44.9837 10.0496L51.7924 9.10819C52.3623 9.05205 52.9358 9.16985 53.4379 9.44618C53.9401 9.72251 54.3474 10.1445 54.6066 10.6569C54.8531 11.0928 54.9882 11.5832 55 12.0842Z" fill="#616161"/>
</svg>